<svg width="1090" height="265" viewBox="0 0 1090 265" fill="none" xmlns="http://www.w3.org/2000/svg">
<line y1="-1" x2="469.481" y2="-1" transform="matrix(0.996793 -0.0800281 0.109341 0.994004 1.92242 58.8855)" stroke="black" stroke-width="2"/>
<line x1="96.0011" y1="16.5718" x2="470.001" y2="17" stroke="black" stroke-width="2"/>
<line y1="-1" x2="276.895" y2="-1" transform="matrix(0.981995 0.188908 -0.231571 0.972818 1.34906 64.5432)" stroke="black" stroke-width="2"/>
<line y1="-1" x2="315.461" y2="-1" transform="matrix(0.861943 -0.507006 0.588482 0.80851 237.451 200.342)" stroke="black" stroke-width="2"/>
<line y1="-1" x2="261.772" y2="-1" transform="matrix(0.854917 0.518766 -0.600441 0.799669 1.34906 64.5432)" stroke="black" stroke-width="2"/>
<line x1="2.96511" y1="64.7381" x2="37.9651" y2="193.738" stroke="black" stroke-width="2"/>
<line x1="39.9892" y1="200" x2="224.989" y2="198" stroke="black" stroke-width="2"/>
<line y1="-1" x2="419.963" y2="-1" transform="matrix(0.985844 -0.167667 0.205941 0.978565 301.233 88.6853)" stroke="black" stroke-width="2"/>
<line y1="-1" x2="207.537" y2="-1" transform="matrix(0.911189 0.411988 -0.488261 0.872698 715.251 18.2712)" stroke="black" stroke-width="2"/>
<line y1="-1" x2="96.3071" y2="-1" transform="matrix(0.670857 -0.741586 0.914166 0.40534 960.975 90.9368)" stroke="black" stroke-width="2"/>
<line y1="-1" x2="227.75" y2="-1" transform="matrix(-0.147747 0.989025 -0.99733 -0.0730258 1027.84 19.5171)" stroke="black" stroke-width="2"/>
<line y1="-1" x2="166.835" y2="-1" transform="matrix(0.946273 -0.323369 0.424031 0.905648 741.661 175.454)" stroke="black" stroke-width="2"/>
<line y1="-1" x2="199.141" y2="-1" transform="matrix(-0.996613 -0.0822401 0.112346 -0.993669 746.172 175.454)" stroke="black" stroke-width="2"/>
<line x1="516" y1="35" x2="516" y2="132" stroke="black" stroke-width="2"/>
<line y1="-1" x2="225.919" y2="-1" transform="matrix(0.768675 -0.639639 0.751793 0.6594 547.705 159.077)" stroke="black" stroke-width="2"/>
<line y1="-1" x2="345.132" y2="-1" transform="matrix(-0.744944 -0.667126 0.775164 -0.63176 980.723 244.817)" stroke="black" stroke-width="2"/>
<line y1="-1" x2="213.585" y2="-1" transform="matrix(-0.950336 -0.311226 0.409377 -0.912365 478.918 175.454)" stroke="black" stroke-width="2"/>
<line y1="-1" x2="495.947" y2="-1" transform="matrix(0.95969 -0.281061 0.512923 0.858435 549.628 158.908)" stroke="black" stroke-width="2"/>
<line y1="-1" x2="178.31" y2="-1" transform="matrix(0.973914 0.226919 -0.304112 0.952636 239.857 195.685)" stroke="black" stroke-width="2"/>
<line y1="-1" x2="89.2259" y2="-1" transform="matrix(0.733013 -0.680214 0.786011 0.618212 413.515 236.147)" stroke="black" stroke-width="2"/>
<line y1="-1" x2="338.148" y2="-1" transform="matrix(0.983761 -0.179485 0.242513 0.970148 413.515 236.147)" stroke="black" stroke-width="2"/>
<line y1="-1" x2="99.4981" y2="-1" transform="matrix(0.895337 -0.445388 0.563196 0.826323 1.92242 58.8855)" stroke="black" stroke-width="2"/>
<line y1="-1" x2="391.29" y2="-1" transform="matrix(0.824218 0.566272 -0.685423 0.728145 91.0067 14.5703)" stroke="black" stroke-width="2"/>
<line y1="-1" x2="147.866" y2="-1" transform="matrix(0.327925 0.944704 -0.969374 0.245591 91.0067 14.5703)" stroke="black" stroke-width="2"/>
<line y1="-1" x2="176.526" y2="-1" transform="matrix(0.939037 -0.343817 0.448394 0.893836 304.133 82.0071)" stroke="black" stroke-width="2"/>
<line y1="-1" x2="298.638" y2="-1" transform="matrix(-0.811835 0.583887 -0.701893 -0.712282 469.897 21.3142)" stroke="black" stroke-width="2"/>
<line y1="-1" x2="270.567" y2="-1" transform="matrix(0.858553 0.512724 -0.633259 0.77394 513.876 36.728)" stroke="black" stroke-width="2"/>
<line y1="-1" x2="176.127" y2="-1" transform="matrix(0.998788 0.049228 -0.0673765 0.997728 547.705 5.89966)" stroke="black" stroke-width="2"/>
<g filter="url(#filter0_d_509_4)">
<line y1="-1" x2="225.657" y2="-1" transform="matrix(0.0599962 0.998199 -0.999566 0.0294472 1036.86 19.5171)" stroke="black" stroke-width="2"/>
</g>
<line y1="-1" x2="394.059" y2="-1" transform="matrix(-0.91286 -0.408273 0.522486 -0.852648 1081.08 257.341)" stroke="black" stroke-width="2"/>
<line y1="-1" x2="81.5629" y2="-1" transform="matrix(0.24886 0.96854 -0.982866 0.184321 721.363 96.4575)" stroke="black" stroke-width="2"/>
<ellipse cx="92.5" cy="16.5" rx="17.5" ry="16.5" fill="#F87227"/>
<ellipse cx="137" cy="140" rx="18" ry="16" fill="#F87227"/>
<ellipse cx="42" cy="201" rx="18" ry="16" fill="#F87227"/>
<ellipse cx="412.5" cy="233" rx="17.5" ry="16" fill="#F87227"/>
<ellipse cx="353.5" cy="133.5" rx="18.5" ry="15.5" fill="#F87227"/>
<ellipse cx="724.5" cy="94" rx="18.5" ry="17" fill="#F87227"/>
<ellipse cx="1072" cy="249" rx="18" ry="16" fill="#F87227"/>
<ellipse cx="1013.5" cy="136" rx="18.5" ry="17" fill="#F87227"/>
<line x1="124.592" y1="152.806" x2="60.5919" y2="199.806" stroke="black" stroke-width="2"/>
<defs>
<filter id="filter0_d_509_4" x="1032.86" y="19.4583" width="23.5377" height="233.309" filterUnits="userSpaceOnUse" color-interpolation-filters="sRGB">
<feFlood flood-opacity="0" result="BackgroundImageFix"/>
<feColorMatrix in="SourceAlpha" type="matrix" values="0 0 0 0 0 0 0 0 0 0 0 0 0 0 0 0 0 0 127 0" result="hardAlpha"/>
<feOffset dy="4"/>
<feGaussianBlur stdDeviation="2"/>
<feComposite in2="hardAlpha" operator="out"/>
<feColorMatrix type="matrix" values="0 0 0 0 0 0 0 0 0 0 0 0 0 0 0 0 0 0 0.25 0"/>
<feBlend mode="normal" in2="BackgroundImageFix" result="effect1_dropShadow_509_4"/>
<feBlend mode="normal" in="SourceGraphic" in2="effect1_dropShadow_509_4" result="shape"/>
</filter>
</defs>
</svg>
